<svg version="1.1" xmlns="http://www.w3.org/2000/svg" x="0" y="0" viewBox="0 0 12 16" style="enable-background:new 0 0 12 16" xml:space="preserve"><path d="M7.4 7.5c-.6-.5-1.2-1-1.2-1.8 0-.1-.1-.2-.1-.2-.1 0-.2 0-.2.1-1.8 2.3.9 2.2.9 3.8 0 .8-.6 1.3-1.3 1.3-.8 0-1.3-.6-1.3-1.3v-.9c0-.1-.1-.2-.2-.2h-.2c-.2.3-.8.9-.8 1.9C3 11.8 4.3 13 6 13c1.6 0 3-1.2 3-2.8 0-1.3-.8-2-1.6-2.7z"/><path d="M6 0C2.5 3.2 0 6.9 0 9.4 0 13.3 2.4 16 6 16c3.5 0 6-2.7 6-6.6C12 6.9 9.5 3.2 6 0zm0 14.5c-2.7 0-4.5-2-4.5-5.1C1.5 8 2.9 5.1 6 2.1c2.7 2.7 4.5 5.6 4.5 7.3 0 3.1-1.8 5.1-4.5 5.1z"/></svg>
