<svg xmlns="http://www.w3.org/2000/svg" viewBox="0 0 14 16" style="enable-background:new 0 0 14 16" xml:space="preserve"><path d="M11 10c-.8 0-1.5.3-2.1.8L5.8 8.9c.2-.6.2-1.2 0-1.8l3.1-1.9c.6.5 1.3.8 2.1.8 1.7 0 3-1.3 3-3s-1.3-3-3-3-3 1.3-3 3c0 .3 0 .6.1.9l-3 1.9C4.5 5.3 3.8 5 3 5 1.3 5 0 6.3 0 8s1.3 3 3 3c.8 0 1.5-.3 2.1-.8l3.1 1.9c-.2.3-.2.6-.2.9 0 1.7 1.3 3 3 3s3-1.3 3-3-1.3-3-3-3zm0-8.5c.8 0 1.5.7 1.5 1.5s-.7 1.5-1.5 1.5S9.5 3.8 9.5 3s.7-1.5 1.5-1.5zm-8 8c-.8 0-1.5-.7-1.5-1.5S2.2 6.5 3 6.5s1.5.7 1.5 1.5S3.8 9.5 3 9.5zm8 5c-.8 0-1.5-.7-1.5-1.5s.7-1.5 1.5-1.5 1.5.7 1.5 1.5-.7 1.5-1.5 1.5z"/></svg>
